<svg xmlns="http://www.w3.org/2000/svg" viewBox="0 0 1338.76 271.89"><defs><style>.cls-1{fill:#fff;}</style></defs><g id="Layer_2" data-name="Layer 2"><g id="Layer_1-2" data-name="Layer 1"><path class="cls-1" d="M326.18,97.09v24.4h46.6c7.6,0,15.2,7.6,15.2,15.4v51.2c0,7.6-7.6,15.4-15.2,15.4H295v-28.6h56a2,2,0,0,0,2.2-2.2v-22a2,2,0,0,0-2.2-2.2H296v-80h88.6v28.6Z"/><path class="cls-1" d="M419.38,80.49l36.19-12H487v104.4h36.4v30.6H415v-30.6h37.19V98.29l-28.79,6.6Z"/><path class="cls-1" d="M580.57,146.69a2,2,0,0,0-2.2,2.2v24H637v30.6h-93.4v-71.2c0-7.8,7.8-11.6,15.4-11.6h42.6a2,2,0,0,0,2.2-2.2V99.29a2,2,0,0,0-2.2-2.2h-55V68.49h76.6c7.6,0,15.4,7.6,15.4,15.4v47.6c0,7.6-7.8,15.2-15.4,15.2Z"/><path class="cls-1" d="M800.17,68.49a15.19,15.19,0,0,1,15.2,15.2v69.4a15.59,15.59,0,0,1-15.2,15.2h-47.8v35.2h-34.8v-135Zm-21.4,71.2a1.93,1.93,0,0,0,1.8-1.8V99.49a2,2,0,0,0-1.8-2h-26.4v42.2Z"/><path class="cls-1" d="M878.57,203.49H844v-135h34.6Z"/><path class="cls-1" d="M937,136.09l-38.2-67.6h38.8l20.4,38.6,17-38.6h37.4l-37.2,69.8,36.8,65.2h-38.4l-20-37.2-19.2,37.2h-36.6Z"/><path class="cls-1" d="M1033.17,68.49h88.2v29h-53.6v23.6h46.4v28.8h-46.4v24.4h53.6v29.2h-88.2Z"/><path class="cls-1" d="M1151,68.49h34.6v105.8h43v29.2H1151Z"/><path class="cls-1" d="M1251.36,174.29H1302c1.4,0,2.2-.8,2.2-1.8v-19.6c0-1-.8-1.8-2.2-1.8h-34.8c-9.4,0-15.8-6.4-15.8-15.8v-51c0-9.4,6.4-15.8,15.8-15.8H1337v29h-48.8a2.06,2.06,0,0,0-2,2.2v19.8a2,2,0,0,0,2,1.8H1323c9.4,0,15.8,6.4,15.8,15.8v50.6c0,9.4-6.4,15.8-15.8,15.8h-71.6Z"/><path class="cls-1" d="M226.28,0H0V254H11.22v17.86h203.6V254h11.46V0ZM201,217.21H109.12V205.39H201Zm.92-65.49H24.35v-127H201.93Z"/></g></g></svg>